<svg width="20" height="20" viewBox="0 0 20 20" fill="none" xmlns="http://www.w3.org/2000/svg">
<path d="M10.7725 2.40255L2.53 1.15005C2.1475 1.09005 1.7575 1.19505 1.465 1.44255C1.1725 1.69755 1 2.06505 1 2.44755V18.25C1 18.6625 1.3375 19 1.75 19H4.1875V15.0625C4.1875 14.335 4.7725 13.75 5.5 13.75H7.375C8.1025 13.75 8.6875 14.335 8.6875 15.0625V19H11.875V3.70005C11.875 3.05505 11.41 2.50755 10.7725 2.40255ZM5.125 12.0625H4C3.6895 12.0625 3.4375 11.8105 3.4375 11.5C3.4375 11.1895 3.6895 10.9375 4 10.9375H5.125C5.4355 10.9375 5.6875 11.1895 5.6875 11.5C5.6875 11.8105 5.4355 12.0625 5.125 12.0625ZM5.125 9.81254H4C3.6895 9.81254 3.4375 9.56054 3.4375 9.25004C3.4375 8.93954 3.6895 8.68754 4 8.68754H5.125C5.4355 8.68754 5.6875 8.93954 5.6875 9.25004C5.6875 9.56054 5.4355 9.81254 5.125 9.81254ZM5.125 7.56254H4C3.6895 7.56254 3.4375 7.31054 3.4375 7.00004C3.4375 6.68954 3.6895 6.43754 4 6.43754H5.125C5.4355 6.43754 5.6875 6.68954 5.6875 7.00004C5.6875 7.31054 5.4355 7.56254 5.125 7.56254ZM5.125 5.31254H4C3.6895 5.31254 3.4375 5.06054 3.4375 4.75004C3.4375 4.43954 3.6895 4.18754 4 4.18754H5.125C5.4355 4.18754 5.6875 4.43954 5.6875 4.75004C5.6875 5.06054 5.4355 5.31254 5.125 5.31254ZM8.875 12.0625H7.75C7.4395 12.0625 7.1875 11.8105 7.1875 11.5C7.1875 11.1895 7.4395 10.9375 7.75 10.9375H8.875C9.1855 10.9375 9.4375 11.1895 9.4375 11.5C9.4375 11.8105 9.1855 12.0625 8.875 12.0625ZM8.875 9.81254H7.75C7.4395 9.81254 7.1875 9.56054 7.1875 9.25004C7.1875 8.93954 7.4395 8.68754 7.75 8.68754H8.875C9.1855 8.68754 9.4375 8.93954 9.4375 9.25004C9.4375 9.56054 9.1855 9.81254 8.875 9.81254ZM8.875 7.56254H7.75C7.4395 7.56254 7.1875 7.31054 7.1875 7.00004C7.1875 6.68954 7.4395 6.43754 7.75 6.43754H8.875C9.1855 6.43754 9.4375 6.68954 9.4375 7.00004C9.4375 7.31054 9.1855 7.56254 8.875 7.56254ZM8.875 5.31254H7.75C7.4395 5.31254 7.1875 5.06054 7.1875 4.75004C7.1875 4.43954 7.4395 4.18754 7.75 4.18754H8.875C9.1855 4.18754 9.4375 4.43954 9.4375 4.75004C9.4375 5.06054 9.1855 5.31254 8.875 5.31254Z" fill="#23415D"/>
<path opacity="0.4" d="M18.215 9.13143L12.875 8.01318V18.9999H17.9375C18.6612 18.9999 19.25 18.4112 19.25 17.6874V10.4139C19.25 9.79443 18.8277 9.26718 18.215 9.13143ZM16.4375 16.7499H15.3125C15.002 16.7499 14.75 16.4979 14.75 16.1874C14.75 15.8769 15.002 15.6249 15.3125 15.6249H16.4375C16.748 15.6249 17 15.8769 17 16.1874C17 16.4979 16.748 16.7499 16.4375 16.7499ZM16.4375 14.4999H15.3125C15.002 14.4999 14.75 14.2479 14.75 13.9374C14.75 13.6269 15.002 13.3749 15.3125 13.3749H16.4375C16.748 13.3749 17 13.6269 17 13.9374C17 14.2479 16.748 14.4999 16.4375 14.4999ZM16.4375 12.2499H15.3125C15.002 12.2499 14.75 11.9979 14.75 11.6874C14.75 11.3769 15.002 11.1249 15.3125 11.1249H16.4375C16.748 11.1249 17 11.3769 17 11.6874C17 11.9979 16.748 12.2499 16.4375 12.2499Z" fill="#23415D"/>
</svg>
