<svg width="56" height="56" viewBox="0 0 56 56" fill="none" xmlns="http://www.w3.org/2000/svg">
<path fill-rule="evenodd" clip-rule="evenodd" d="M20.1599 12.32C20.1599 11.7014 20.6614 11.2 21.2799 11.2H25.7599C26.3785 11.2 26.8799 11.7014 26.8799 12.32V41.4399C26.8799 41.7899 26.7164 42.1197 26.4379 42.3315C26.1593 42.5433 25.7978 42.6127 25.4606 42.5192L13.1406 39.1021C12.6556 38.9676 12.3199 38.5261 12.3199 38.0228V32.4844C12.3199 32.1345 12.4835 31.8047 12.762 31.5929C13.0405 31.3811 13.402 31.3117 13.7392 31.4052L20.1599 33.1855V12.32ZM22.3999 13.44V34.6583C22.3999 35.0083 22.2364 35.3381 21.9579 35.5499C21.6794 35.7617 21.3179 35.8311 20.9807 35.7376L14.5599 33.9572V37.1712L24.6399 39.967V13.44H22.3999ZM29.1199 12.32C29.1199 11.7014 29.6214 11.2 30.2399 11.2H43.6799C43.9937 11.2 44.2931 11.3316 44.5052 11.5628C44.7174 11.794 44.8228 12.1036 44.7958 12.4162L44.4094 16.8962C44.3595 17.4753 43.8748 17.92 43.2935 17.92H35.8399V24.47L42.4632 23.531C42.8011 23.4831 43.1424 23.5919 43.3903 23.8265C43.6382 24.0611 43.7656 24.3959 43.7363 24.736L42.5558 38.456C42.5156 38.923 42.1889 39.3156 41.7369 39.4399L30.5369 42.5199C30.1999 42.6125 29.839 42.5426 29.5611 42.3307C29.2831 42.1189 29.1199 41.7894 29.1199 41.4399V36.2868C29.1199 35.7826 29.4569 35.3405 29.9432 35.2069L36.7354 33.3403L36.8678 31.3546L30.4301 32.4637C30.1046 32.5198 29.7709 32.4293 29.5183 32.2165C29.2657 32.0037 29.1199 31.6902 29.1199 31.3599V12.32ZM31.3599 13.44V30.0305L37.8898 28.9055C38.2282 28.8472 38.5746 28.9473 38.8297 29.1772C39.0847 29.407 39.2203 29.7411 39.1975 30.0837L38.9175 34.2837C38.8858 34.7594 38.5564 35.1629 38.0967 35.2892L31.3599 37.1406V39.9704L40.3909 37.4868L41.3839 25.9464L34.8771 26.8689C34.5559 26.9144 34.2307 26.8184 33.9857 26.6057C33.7407 26.3929 33.5999 26.0844 33.5999 25.7599V16.8C33.5999 16.1814 34.1014 15.68 34.7199 15.68H42.266L42.4592 13.44H31.3599Z" fill="#62B3FF"/>
<path fill-rule="evenodd" clip-rule="evenodd" d="M5.29334 2.60406C5.50551 2.3721 5.8054 2.23999 6.11976 2.23999H49.8804C50.1947 2.23999 50.4946 2.3721 50.7068 2.60404C50.919 2.83599 51.0239 3.14642 50.996 3.45953L47.0558 47.6178C47.0146 48.0794 46.6933 48.468 46.2476 48.5952L28.3007 53.717C28.0997 53.7743 27.8867 53.7743 27.6858 53.7169L9.75455 48.5952C9.30899 48.4679 8.9878 48.0794 8.9466 47.6178L5.0042 3.45959C4.97624 3.14647 5.08116 2.83602 5.29334 2.60406ZM7.34421 4.47999L11.1093 46.6525L27.9935 51.4752L44.893 46.6524L48.656 4.47999H7.34421Z" fill="#62B3FF"/>
</svg>
