<svg width="58" height="59" viewBox="0 0 58 59" fill="none" xmlns="http://www.w3.org/2000/svg">
<path d="M37.4584 8.45837V10.6334C37.4584 14.0167 38.3042 17.2792 39.7542 20.3L45.9167 32.625L29 56.7917L12.0834 32.625L18.2459 20.3C19.6959 17.2792 20.5417 14.0167 20.5417 10.6334V8.45837" stroke="#62B3FF" stroke-width="2.3" stroke-miterlimit="10"/>
<path d="M29 36.25C31.002 36.25 32.625 34.627 32.625 32.625C32.625 30.623 31.002 29 29 29C26.998 29 25.375 30.623 25.375 32.625C25.375 34.627 26.998 36.25 29 36.25Z" fill="#62B3FF"/>
<path d="M29 32.625V56.7917" stroke="#62B3FF" stroke-width="2.3" stroke-miterlimit="10"/>
<path d="M44.7083 8.45837H13.2917L10.875 1.20837H47.125L44.7083 8.45837Z" stroke="#62B3FF" stroke-width="2.3" stroke-miterlimit="10"/>
</svg>
