<svg width="64" height="64" viewBox="0 0 64 64" fill="none" xmlns="http://www.w3.org/2000/svg">
<g id="Instagram">
<rect width="64" height="64" rx="32" fill="url(#paint0_radial_5_34646)"/>
<rect width="64" height="64" rx="32" fill="url(#paint1_radial_5_34646)"/>
<g id="Instagram_2">
<path id="Vector" d="M25.3349 32C25.3349 28.3182 28.3189 25.3328 32.0008 25.3328C35.6827 25.3328 38.6683 28.3182 38.6683 32C38.6683 35.6818 35.6827 38.6672 32.0008 38.6672C28.3189 38.6672 25.3349 35.6818 25.3349 32ZM21.7306 32C21.7306 37.672 26.3286 42.2698 32.0008 42.2698C37.673 42.2698 42.271 37.672 42.271 32C42.271 26.328 37.673 21.7302 32.0008 21.7302C26.3286 21.7302 21.7306 26.328 21.7306 32ZM40.2775 21.323C40.2773 21.7977 40.4178 22.2618 40.6814 22.6566C40.945 23.0514 41.3197 23.3591 41.7582 23.5409C42.1967 23.7228 42.6792 23.7705 43.1448 23.6781C43.6105 23.5857 44.0382 23.3572 44.374 23.0217C44.7098 22.6862 44.9385 22.2587 45.0313 21.7932C45.1241 21.3276 45.0768 20.8451 44.8953 20.4064C44.7138 19.9678 44.4064 19.5929 44.0118 19.329C43.6172 19.0651 43.1532 18.9242 42.6785 18.924H42.6775C42.0413 18.9243 41.4311 19.1771 40.9811 19.6269C40.5311 20.0767 40.278 20.6868 40.2775 21.323ZM23.9205 48.2795C21.9705 48.1907 20.9106 47.8659 20.2062 47.5915C19.2725 47.228 18.6062 46.795 17.9057 46.0955C17.2052 45.396 16.7716 44.7304 16.4096 43.7966C16.135 43.0926 15.8102 42.0325 15.7216 40.0826C15.6246 37.9744 15.6053 37.3411 15.6053 32.0002C15.6053 26.6592 15.6262 26.0277 15.7216 23.9178C15.8104 21.9678 16.1376 20.9098 16.4096 20.2037C16.7732 19.2699 17.2061 18.6037 17.9057 17.9032C18.6052 17.2027 19.2709 16.7691 20.2062 16.4072C20.9103 16.1326 21.9705 15.8078 23.9205 15.7192C26.0287 15.6222 26.662 15.6029 32.0008 15.6029C37.3396 15.6029 37.9735 15.6238 40.0835 15.7192C42.0335 15.808 43.0916 16.1352 43.7978 16.4072C44.7316 16.7691 45.3978 17.2037 46.0983 17.9032C46.7988 18.6027 47.2309 19.2699 47.5944 20.2037C47.869 20.9077 48.1938 21.9678 48.2824 23.9178C48.3794 26.0277 48.3987 26.6592 48.3987 32.0002C48.3987 37.3411 48.3794 37.9726 48.2824 40.0826C48.1936 42.0325 47.8672 43.0923 47.5944 43.7966C47.2309 44.7304 46.7979 45.3966 46.0983 46.0955C45.3988 46.7944 44.7316 47.228 43.7978 47.5915C43.0937 47.8661 42.0335 48.1909 40.0835 48.2795C37.9753 48.3765 37.342 48.3958 32.0008 48.3958C26.6596 48.3958 26.0281 48.3765 23.9205 48.2795ZM23.7549 12.1211C21.6257 12.2181 20.1707 12.5557 18.9001 13.0501C17.5842 13.5606 16.4703 14.2456 15.3571 15.357C14.2439 16.4683 13.5607 17.584 13.0501 18.8998C12.5557 20.1712 12.2181 21.6253 12.1211 23.7544C12.0226 25.8869 12 26.5686 12 32C12 37.4314 12.0226 38.1131 12.1211 40.2456C12.2181 42.3749 12.5557 43.8288 13.0501 45.1002C13.5607 46.4152 14.2441 47.5322 15.3571 48.643C16.4701 49.7539 17.5842 50.4379 18.9001 50.9499C20.1731 51.4443 21.6257 51.7819 23.7549 51.8789C25.8886 51.9758 26.5692 52 32.0008 52C37.4324 52 38.1142 51.9774 40.2467 51.8789C42.3761 51.7819 43.8301 51.4443 45.1015 50.9499C46.4166 50.4379 47.5313 49.7544 48.6445 48.643C49.7577 47.5317 50.4395 46.4152 50.9515 45.1002C51.4459 43.8288 51.7851 42.3747 51.8805 40.2456C51.9774 38.1115 52 37.4314 52 32C52 26.5686 51.9774 25.8869 51.8805 23.7544C51.7835 21.6251 51.4459 20.1704 50.9515 18.8998C50.4395 17.5848 49.7559 16.4701 48.6445 15.357C47.5331 14.2438 46.4166 13.5606 45.1031 13.0501C43.8301 12.5557 42.3759 12.2165 40.2483 12.1211C38.1158 12.0242 37.434 12 32.0024 12C26.5708 12 25.8886 12.0226 23.7549 12.1211Z" fill="white"/>
</g>
</g>
<defs>
<radialGradient id="paint0_radial_5_34646" cx="0" cy="0" r="1" gradientUnits="userSpaceOnUse" gradientTransform="translate(54.08 72.64) rotate(-115.776) scale(87.2757 129.813)">
<stop offset="0.24392" stop-color="#FF1B90"/>
<stop offset="0.436673" stop-color="#F80261"/>
<stop offset="0.688476" stop-color="#ED00C0"/>
<stop offset="0.776787" stop-color="#C500E9"/>
<stop offset="0.893155" stop-color="#7017FF"/>
</radialGradient>
<radialGradient id="paint1_radial_5_34646" cx="0" cy="0" r="1" gradientUnits="userSpaceOnUse" gradientTransform="translate(23.2 61.792) rotate(-57.4396) scale(37.8157 39.3338)">
<stop stop-color="#FFD600"/>
<stop offset="0.484375" stop-color="#FF6930"/>
<stop offset="0.734375" stop-color="#FE3B36"/>
<stop offset="1" stop-color="#FE3B36" stop-opacity="0"/>
</radialGradient>
</defs>
</svg>
