<svg width="58" height="58" viewBox="0 0 58 58" fill="none" xmlns="http://www.w3.org/2000/svg">
<path d="M48.9216 10.875H9.07835C7.06757 10.875 5.4375 12.5051 5.4375 14.5159V41.6716C5.4375 43.6825 7.06757 45.3125 9.07835 45.3125H48.9216C50.9325 45.3125 52.5625 43.6825 52.5625 41.6716V14.5159C52.5625 12.5051 50.9325 10.875 48.9216 10.875Z" stroke="#62B3FF" stroke-width="1.2" stroke-linejoin="round"/>
<path d="M1.8125 47.125H56.1875" stroke="#62B3FF" stroke-width="1.2" stroke-miterlimit="10" stroke-linecap="round"/>
<path d="M17.0754 22.5905C18.4853 22.5905 19.5319 22.9466 20.2151 23.6588C20.9127 24.371 21.2616 25.4539 21.2616 26.9075V32.5545C21.2616 32.8887 21.1671 33.1505 20.9782 33.3395C20.7892 33.5137 20.5276 33.6009 20.1933 33.6009C19.8735 33.6009 19.6191 33.5064 19.4301 33.3175C19.2412 33.1287 19.1467 32.8742 19.1467 32.5545V31.7478C18.8705 32.3583 18.4563 32.8307 17.9039 33.165C17.3661 33.4847 16.7338 33.6447 16.0071 33.6447C15.3094 33.6447 14.6698 33.5064 14.0884 33.2305C13.5215 32.9397 13.0709 32.5473 12.7366 32.0531C12.4023 31.5589 12.2351 30.9992 12.2351 30.3742C12.2206 29.5893 12.4168 28.9788 12.8238 28.5426C13.2308 28.0921 13.8922 27.7724 14.8079 27.5834C15.7236 27.38 16.9955 27.2782 18.6234 27.2782H19.1249V26.6458C19.1249 25.8318 18.9577 25.2431 18.6234 24.8797C18.2891 24.5164 17.7513 24.3347 17.01 24.3347C16.5013 24.3347 16.0216 24.4002 15.571 24.5309C15.1204 24.6617 14.6262 24.8507 14.0884 25.0979C13.6959 25.3159 13.4198 25.4249 13.2599 25.4249C13.0418 25.4249 12.8601 25.3449 12.7148 25.1851C12.584 25.0251 12.5186 24.8217 12.5186 24.5744C12.5186 24.3565 12.5767 24.1675 12.693 24.0077C12.8238 23.8332 13.0273 23.6661 13.3035 23.5062C13.8122 23.23 14.4082 23.012 15.0913 22.8521C15.7745 22.6777 16.4358 22.5905 17.0754 22.5905ZM16.3995 32.0093C17.199 32.0093 17.8531 31.7406 18.3618 31.2026C18.8705 30.6504 19.1249 29.9452 19.1249 29.0878V28.5209H18.7325C17.5987 28.5209 16.7266 28.5718 16.1161 28.6736C15.5056 28.7753 15.0695 28.9496 14.8079 29.1968C14.5463 29.4293 14.4154 29.771 14.4154 30.2215C14.4154 30.7449 14.6044 31.1736 14.9823 31.5079C15.3602 31.8423 15.8326 32.0093 16.3995 32.0093Z" fill="#62B3FF"/>
<path d="M29.9863 22.5904C30.9164 22.5904 31.7379 22.8157 32.4501 23.2663C33.1622 23.7169 33.7147 24.3564 34.1072 25.1851C34.5141 26.0135 34.7176 26.9802 34.7176 28.0848C34.7176 29.175 34.5141 30.1414 34.1072 30.9846C33.7147 31.8275 33.155 32.4817 32.4283 32.9469C31.7159 33.4119 30.9019 33.6446 29.9863 33.6446C29.1868 33.6446 28.4819 33.4774 27.8714 33.1431C27.261 32.7942 26.7958 32.3 26.4761 31.6605V32.5327C26.4761 32.8524 26.3743 33.1139 26.1708 33.3174C25.9818 33.5064 25.7201 33.6009 25.3859 33.6009C25.0514 33.6009 24.7827 33.5064 24.5792 33.3174C24.3755 33.1139 24.2737 32.8524 24.2737 32.5327V19.0583C24.2737 18.7385 24.3755 18.4841 24.5792 18.2952C24.7972 18.1062 25.0734 18.0117 25.4076 18.0117C25.7274 18.0117 25.9818 18.1062 26.1708 18.2952C26.3743 18.4696 26.4761 18.7094 26.4761 19.0147V24.5964C26.7958 23.9567 27.261 23.4625 27.8714 23.1137C28.4819 22.7648 29.1868 22.5904 29.9863 22.5904ZM29.4631 31.9003C30.4077 31.9003 31.1419 31.566 31.6651 30.8973C32.2028 30.2286 32.4718 29.2912 32.4718 28.0848C32.4718 26.8929 32.2101 25.9772 31.6869 25.3376C31.1637 24.6834 30.4222 24.3564 29.4631 24.3564C28.5036 24.3564 27.7624 24.6834 27.239 25.3376C26.7303 25.9917 26.4761 26.9219 26.4761 28.1283C26.4761 29.3347 26.7303 30.2651 27.239 30.9191C27.7624 31.5733 28.5036 31.9003 29.4631 31.9003Z" fill="#62B3FF"/>
<path d="M41.7124 33.6447C40.6805 33.6447 39.7718 33.4192 38.9871 32.9687C38.2167 32.518 37.6135 31.8786 37.1773 31.0501C36.7558 30.2215 36.5451 29.2623 36.5451 28.1721C36.5451 27.0672 36.7631 26.0936 37.1993 25.2504C37.6498 24.4074 38.2747 23.7533 39.0741 23.2881C39.8736 22.823 40.7895 22.5905 41.8214 22.5905C42.3739 22.5905 42.9261 22.6704 43.4785 22.8303C44.0452 22.9902 44.5469 23.2082 44.9829 23.4844C45.4481 23.8042 45.6806 24.1747 45.6806 24.5964C45.6806 24.8434 45.6151 25.0541 45.4843 25.2286C45.3536 25.3886 45.1864 25.4684 44.9829 25.4684C44.8521 25.4684 44.7212 25.4394 44.5904 25.3811C44.4597 25.3086 44.2924 25.2069 44.089 25.0759C43.7255 24.8434 43.384 24.6689 43.0643 24.5527C42.7591 24.422 42.3884 24.3565 41.9522 24.3565C40.9637 24.3565 40.1935 24.6909 39.6411 25.3594C39.1034 26.0281 38.8344 26.9582 38.8344 28.1501C38.8344 29.342 39.1034 30.2652 39.6411 30.9192C40.179 31.5589 40.942 31.8786 41.9304 31.8786C42.3666 31.8786 42.7516 31.8131 43.086 31.6823C43.4203 31.5516 43.762 31.3771 44.1107 31.1591C44.2707 31.0574 44.4304 30.9702 44.5904 30.8974C44.7504 30.8247 44.8956 30.7884 45.0264 30.7884C45.2299 30.7884 45.3971 30.8757 45.5278 31.0501C45.6588 31.2099 45.7241 31.4134 45.7241 31.6606C45.7241 31.8641 45.6661 32.0531 45.5498 32.2273C45.4481 32.3873 45.2664 32.5545 45.0046 32.729C44.5687 33.0195 44.06 33.245 43.4785 33.4047C42.8971 33.5647 42.3084 33.6447 41.7124 33.6447Z" fill="#62B3FF"/>
</svg>
