<svg width="58" height="58" viewBox="0 0 58 58" fill="none" xmlns="http://www.w3.org/2000/svg">
<path d="M27.8639 4.83337C30.5457 4.83337 32.6992 6.98066 32.6942 9.76308L31.7254 20.424C31.665 21.0886 32.1548 21.6763 32.8194 21.7367C32.8558 21.74 32.8923 21.7417 32.9288 21.7417H44.7083C48.045 21.7417 50.7499 24.4466 50.7499 27.7833C50.7499 27.9586 50.7423 28.1338 50.7271 28.3084C50.5193 30.6896 50.1803 33.0474 49.7101 35.3817C49.3695 37.072 48.9575 38.6937 48.474 40.2466C47.1779 44.4087 43.5216 47.3947 39.1845 47.8331C35.8875 48.1664 32.9207 48.3334 30.2825 48.3334C27.6576 48.3334 25.3536 48.1681 23.3674 47.8352C21.0389 47.4448 19.3333 45.4293 19.3333 43.0684V34.4331C19.3333 26.7042 20.3684 19.01 22.411 11.5558L23.0036 9.39352C23.4567 6.76335 25.3264 4.83337 27.8639 4.83337ZM32.6007 24.1435C30.6069 23.9623 29.1375 22.1991 29.3186 20.2053L30.2825 9.65372C30.2825 8.31691 29.2126 7.25004 27.8639 7.25004C26.607 7.25004 25.635 8.26479 25.3778 9.8475L25.3505 9.97307L24.7418 12.1945C22.7562 19.4406 21.7499 26.9199 21.7499 34.4331V43.0684C21.7499 44.2488 22.6028 45.2566 23.767 45.4518C25.6109 45.7609 27.7837 45.9167 30.2825 45.9167C32.8343 45.9167 35.7211 45.7543 38.9414 45.4287C42.3148 45.0877 45.1585 42.7653 46.1666 39.5281C46.6251 38.0557 47.0166 36.5145 47.341 34.9044C47.7935 32.6585 48.1196 30.3899 48.3196 28.0984C48.3287 27.9936 48.3333 27.8885 48.3333 27.7833C48.3333 25.7813 46.7103 24.1583 44.7083 24.1583H32.9288C32.8192 24.1583 32.7098 24.1534 32.6007 24.1435ZM9.2649 21.75H13.2916C15.2936 21.75 16.9166 23.373 16.9166 25.375L16.9166 44.7084C16.9166 46.7104 15.2936 48.3334 13.2916 48.3334L9.26 48.3334C7.48948 48.3334 5.978 47.0544 5.68499 45.3083C5.11718 41.9247 4.83325 38.5182 4.83325 35.0896C4.83325 31.6529 5.11851 28.2166 5.68885 24.7814C5.97918 23.0324 7.49198 21.75 9.2649 21.75ZM9.2649 24.1667C8.67392 24.1667 8.16966 24.5942 8.07288 25.1772C7.52419 28.4821 7.24992 31.786 7.24992 35.0896C7.24992 38.3842 7.5227 41.6569 8.06833 44.9083C8.166 45.4904 8.66983 45.9167 9.26 45.9167L13.2916 45.9167C13.9589 45.9167 14.4999 45.3757 14.4999 44.7084L14.4999 25.375C14.4999 24.7077 13.9589 24.1667 13.2916 24.1667H9.2649Z" fill="#62B3FF"/>
</svg>
